<svg width="37" height="53" viewBox="0 0 37 53" fill="none" xmlns="http://www.w3.org/2000/svg">
<path d="M10.755 41.15C11.085 41.21 11.49 41.27 11.97 41.33C12.45 41.36 12.9 41.375 13.32 41.375C14.34 41.375 15.27 41.225 16.11 40.925C16.98 40.625 17.715 40.16 18.315 39.53C18.945 38.9 19.425 38.09 19.755 37.1C20.115 36.08 20.295 34.865 20.295 33.455C20.295 30.755 19.665 28.73 18.405 27.38C17.145 26 15.465 25.31 13.365 25.31C12.945 25.31 12.51 25.325 12.06 25.355C11.64 25.385 11.205 25.43 10.755 25.49V41.15ZM13.275 47.72C12.765 47.72 12.18 47.705 11.52 47.675C10.86 47.645 10.17 47.585 9.45 47.495C8.76 47.405 8.055 47.285 7.335 47.135C6.645 47.015 6 46.835 5.4 46.595C3.75 45.965 2.925 44.87 2.925 43.31V22.295C2.925 21.665 3.09 21.185 3.42 20.855C3.78 20.495 4.26 20.21 4.86 20C6.15 19.58 7.515 19.31 8.955 19.19C10.395 19.04 11.685 18.965 12.825 18.965C15.165 18.965 17.28 19.25 19.17 19.82C21.09 20.39 22.725 21.275 24.075 22.475C25.455 23.645 26.52 25.13 27.27 26.93C28.02 28.73 28.395 30.86 28.395 33.32C28.395 35.72 28.035 37.82 27.315 39.62C26.595 41.39 25.56 42.89 24.21 44.12C22.89 45.32 21.3 46.22 19.44 46.82C17.58 47.42 15.525 47.72 13.275 47.72Z" fill="#FF7A00"/>
<path d="M25.74 47.18C25.1533 46.98 24.62 46.78 24.14 46.58C23.66 46.3667 23.2467 46.1133 22.9 45.82C22.5533 45.5267 22.28 45.18 22.08 44.78C21.8933 44.3667 21.8 43.8667 21.8 43.28C21.8 42.1467 22.2333 41.24 23.1 40.56C23.98 39.88 25.2067 39.54 26.78 39.54C27.3533 39.54 27.8867 39.58 28.38 39.66C28.8733 39.74 29.2933 39.8667 29.64 40.04C30 40.2 30.28 40.4133 30.48 40.68C30.68 40.9333 30.78 41.2333 30.78 41.58C30.78 41.9267 30.7 42.2267 30.54 42.48C30.38 42.72 30.1867 42.9267 29.96 43.1C29.6667 42.9133 29.2733 42.7533 28.78 42.62C28.2867 42.4733 27.7467 42.4 27.16 42.4C26.56 42.4 26.12 42.4867 25.84 42.66C25.56 42.82 25.42 43.0267 25.42 43.28C25.42 43.48 25.5067 43.6467 25.68 43.78C25.8533 43.9 26.1133 44.0133 26.46 44.12L27.52 44.46C28.7733 44.86 29.7333 45.3733 30.4 46C31.08 46.6133 31.42 47.4533 31.42 48.52C31.42 49.6533 30.9733 50.5733 30.08 51.28C29.1867 51.9733 27.8733 52.32 26.14 52.32C25.5267 52.32 24.9533 52.2667 24.42 52.16C23.9 52.0667 23.44 51.9267 23.04 51.74C22.6533 51.54 22.3467 51.3 22.12 51.02C21.9067 50.7267 21.8 50.3933 21.8 50.02C21.8 49.6333 21.9133 49.3067 22.14 49.04C22.3667 48.76 22.6133 48.5467 22.88 48.4C23.2533 48.6933 23.7067 48.9467 24.24 49.16C24.7867 49.3733 25.38 49.48 26.02 49.48C26.6733 49.48 27.1333 49.38 27.4 49.18C27.6667 48.98 27.8 48.7467 27.8 48.48C27.8 48.2133 27.6933 48.0133 27.48 47.88C27.2667 47.7333 26.9667 47.5933 26.58 47.46L25.74 47.18Z" fill="#F6A861"/>
</svg>
