<svg width="252" height="103" viewBox="0 0 252 103" fill="none" xmlns="http://www.w3.org/2000/svg">
<rect x="100" y="9" width="51" height="49" rx="10" fill="white"/>
<path d="M3.29 95V71.2H11.34C14.1867 71.2 16.3567 71.9933 17.85 73.58C19.3433 75.1667 20.09 77.5 20.09 80.58V85.585C20.09 88.6883 19.3433 91.0333 17.85 92.62C16.3567 94.2067 14.1867 95 11.34 95H3.29ZM11.165 75.225H7.49V90.975H11.165C12.8217 90.975 14 90.5667 14.7 89.75C15.4233 88.9333 15.785 87.545 15.785 85.585V80.58C15.785 78.6433 15.4233 77.2667 14.7 76.45C14 75.6333 12.8217 75.225 11.165 75.225ZM29.8435 95H25.6435V71.2H29.8435V95ZM41.5901 91.465C44.2968 91.465 45.6501 90.4617 45.6501 88.455C45.6501 87.6383 45.4401 86.9967 45.0201 86.53C44.6235 86.0633 43.8768 85.655 42.7801 85.305L39.9101 84.36C36.4801 83.24 34.7651 80.9883 34.7651 77.605C34.7651 75.645 35.3718 74.035 36.5851 72.775C37.8218 71.4917 39.7468 70.85 42.3601 70.85C43.4568 70.85 44.5418 70.9783 45.6151 71.235C46.6885 71.4683 47.8318 71.8533 49.0451 72.39L47.7501 75.995C46.6301 75.5517 45.6735 75.2367 44.8801 75.05C44.1101 74.84 43.3168 74.735 42.5001 74.735C41.4268 74.735 40.5751 74.9333 39.9451 75.33C39.3385 75.7033 39.0351 76.3917 39.0351 77.395C39.0351 78.1417 39.2451 78.76 39.6651 79.25C40.1085 79.7167 40.8318 80.1133 41.8351 80.44L44.7051 81.385C46.4318 81.9683 47.7268 82.82 48.5901 83.94C49.4768 85.0367 49.9201 86.495 49.9201 88.315C49.9201 90.415 49.2551 92.1183 47.9251 93.425C46.5951 94.7083 44.5068 95.35 41.6601 95.35C40.5401 95.35 39.3735 95.2217 38.1601 94.965C36.9701 94.685 35.6635 94.2183 34.2401 93.565L35.5351 89.96C36.8418 90.52 37.9501 90.9167 38.8601 91.15C39.7935 91.36 40.7035 91.465 41.5901 91.465ZM57.7454 85.585C57.7454 87.2883 58.1187 88.6883 58.8654 89.785C59.612 90.8583 60.837 91.395 62.5404 91.395C63.2404 91.395 63.9637 91.3017 64.7104 91.115C65.4804 90.9283 66.4254 90.6133 67.5454 90.17L68.8404 93.81C67.5804 94.37 66.4137 94.7667 65.3404 95C64.2904 95.2333 63.2754 95.35 62.2954 95.35C60.3354 95.35 58.6904 94.93 57.3604 94.09C56.0537 93.25 55.0737 92.095 54.4204 90.625C53.767 89.155 53.4404 87.475 53.4404 85.585V80.58C53.4404 78.69 53.767 77.01 54.4204 75.54C55.0737 74.07 56.0537 72.9267 57.3604 72.11C58.6904 71.27 60.3354 70.85 62.2954 70.85C63.252 70.85 64.2437 70.9667 65.2704 71.2C66.297 71.41 67.417 71.7833 68.6304 72.32L67.3354 76.03C66.262 75.5867 65.3637 75.2717 64.6404 75.085C63.917 74.8983 63.217 74.805 62.5404 74.805C60.837 74.805 59.612 75.3417 58.8654 76.415C58.1187 77.4883 57.7454 78.8767 57.7454 80.58V85.585ZM89.8857 80.58V85.585C89.8857 88.6183 89.1274 91.01 87.6107 92.76C86.0941 94.4867 83.8774 95.35 80.9607 95.35C78.0207 95.35 75.7924 94.4867 74.2757 92.76C72.7824 91.01 72.0357 88.6183 72.0357 85.585V80.58C72.0357 77.5467 72.7824 75.1667 74.2757 73.44C75.7924 71.7133 78.0207 70.85 80.9607 70.85C83.8774 70.85 86.0941 71.7133 87.6107 73.44C89.1274 75.1667 89.8857 77.5467 89.8857 80.58ZM85.5807 80.58C85.5807 78.6667 85.2074 77.2317 84.4607 76.275C83.7141 75.295 82.5474 74.805 80.9607 74.805C79.3741 74.805 78.2074 75.295 77.4607 76.275C76.7141 77.2317 76.3407 78.6667 76.3407 80.58V85.585C76.3407 87.4983 76.7141 88.945 77.4607 89.925C78.2074 90.905 79.3741 91.395 80.9607 91.395C82.5474 91.395 83.7141 90.905 84.4607 89.925C85.2074 88.945 85.5807 87.4983 85.5807 85.585V80.58ZM111.586 71.2L104.026 95H99.7207L92.1257 71.2H96.7457L100.351 83.17L101.996 89.33L103.746 83.135L107.316 71.2H111.586ZM129.155 90.975V95H115.365V71.2H128.805V75.225H119.565V80.93H127.755V84.955H119.565V90.975H129.155ZM138.33 86.25V95H134.13V71.2H142.075C144.478 71.2 146.322 71.8183 147.605 73.055C148.912 74.2683 149.565 75.9017 149.565 77.955V79.46C149.565 80.8133 149.273 82.0033 148.69 83.03C148.107 84.0567 147.267 84.8383 146.17 85.375C148.083 88.6417 149.717 91.85 151.07 95H146.275C145.108 92.0833 143.72 89.1667 142.11 86.25H138.33ZM142.075 75.05H138.33V82.4H142.075C143.102 82.4 143.883 82.1433 144.42 81.63C144.98 81.0933 145.26 80.37 145.26 79.46V77.955C145.26 77.0683 144.98 76.3683 144.42 75.855C143.883 75.3183 143.102 75.05 142.075 75.05ZM170.214 71.2L162.934 85.445V95H158.734V85.515L151.384 71.2H155.864L161.009 81.35L165.874 71.2H170.214ZM185.794 91.465C188.501 91.465 189.854 90.4617 189.854 88.455C189.854 87.6383 189.644 86.9967 189.224 86.53C188.828 86.0633 188.081 85.655 186.984 85.305L184.114 84.36C180.684 83.24 178.969 80.9883 178.969 77.605C178.969 75.645 179.576 74.035 180.789 72.775C182.026 71.4917 183.951 70.85 186.564 70.85C187.661 70.85 188.746 70.9783 189.819 71.235C190.893 71.4683 192.036 71.8533 193.249 72.39L191.954 75.995C190.834 75.5517 189.878 75.2367 189.084 75.05C188.314 74.84 187.521 74.735 186.704 74.735C185.631 74.735 184.779 74.9333 184.149 75.33C183.543 75.7033 183.239 76.3917 183.239 77.395C183.239 78.1417 183.449 78.76 183.869 79.25C184.313 79.7167 185.036 80.1133 186.039 80.44L188.909 81.385C190.636 81.9683 191.931 82.82 192.794 83.94C193.681 85.0367 194.124 86.495 194.124 88.315C194.124 90.415 193.459 92.1183 192.129 93.425C190.799 94.7083 188.711 95.35 185.864 95.35C184.744 95.35 183.578 95.2217 182.364 94.965C181.174 94.685 179.868 94.2183 178.444 93.565L179.739 89.96C181.046 90.52 182.154 90.9167 183.064 91.15C183.998 91.36 184.908 91.465 185.794 91.465ZM211.364 95L205.414 84.605C205.018 85.0483 204.609 85.4917 204.189 85.935C203.793 86.3783 203.373 86.8333 202.929 87.3V95H198.729V71.2H202.929V82.505C204.703 80.475 206.219 78.55 207.479 76.73C208.739 74.8867 209.824 73.0433 210.734 71.2H215.319C214.316 73.2067 213.243 75.1083 212.099 76.905C210.979 78.6783 209.789 80.3233 208.529 81.84L216.439 95H211.364ZM224.497 95H220.297V71.2H224.497V95ZM231.063 95V71.2H234.913C236.757 73.6033 238.507 76.1467 240.163 78.83C241.82 81.49 243.325 84.2317 244.678 87.055L244.363 79.95V71.2H248.388V95H244.538C243.045 92.06 241.493 89.1083 239.883 86.145C238.297 83.1583 236.605 80.3467 234.808 77.71L235.088 85.9V95H231.063Z" fill="#FF7A00"/>
<path d="M121.755 41.15C122.085 41.21 122.49 41.27 122.97 41.33C123.45 41.36 123.9 41.375 124.32 41.375C125.34 41.375 126.27 41.225 127.11 40.925C127.98 40.625 128.715 40.16 129.315 39.53C129.945 38.9 130.425 38.09 130.755 37.1C131.115 36.08 131.295 34.865 131.295 33.455C131.295 30.755 130.665 28.73 129.405 27.38C128.145 26 126.465 25.31 124.365 25.31C123.945 25.31 123.51 25.325 123.06 25.355C122.64 25.385 122.205 25.43 121.755 25.49V41.15ZM124.275 47.72C123.765 47.72 123.18 47.705 122.52 47.675C121.86 47.645 121.17 47.585 120.45 47.495C119.76 47.405 119.055 47.285 118.335 47.135C117.645 47.015 117 46.835 116.4 46.595C114.75 45.965 113.925 44.87 113.925 43.31V22.295C113.925 21.665 114.09 21.185 114.42 20.855C114.78 20.495 115.26 20.21 115.86 20C117.15 19.58 118.515 19.31 119.955 19.19C121.395 19.04 122.685 18.965 123.825 18.965C126.165 18.965 128.28 19.25 130.17 19.82C132.09 20.39 133.725 21.275 135.075 22.475C136.455 23.645 137.52 25.13 138.27 26.93C139.02 28.73 139.395 30.86 139.395 33.32C139.395 35.72 139.035 37.82 138.315 39.62C137.595 41.39 136.56 42.89 135.21 44.12C133.89 45.32 132.3 46.22 130.44 46.82C128.58 47.42 126.525 47.72 124.275 47.72Z" fill="#FF7A00"/>
<path d="M136.74 47.18C136.153 46.98 135.62 46.78 135.14 46.58C134.66 46.3667 134.247 46.1133 133.9 45.82C133.553 45.5267 133.28 45.18 133.08 44.78C132.893 44.3667 132.8 43.8667 132.8 43.28C132.8 42.1467 133.233 41.24 134.1 40.56C134.98 39.88 136.207 39.54 137.78 39.54C138.353 39.54 138.887 39.58 139.38 39.66C139.873 39.74 140.293 39.8667 140.64 40.04C141 40.2 141.28 40.4133 141.48 40.68C141.68 40.9333 141.78 41.2333 141.78 41.58C141.78 41.9267 141.7 42.2267 141.54 42.48C141.38 42.72 141.187 42.9267 140.96 43.1C140.667 42.9133 140.273 42.7533 139.78 42.62C139.287 42.4733 138.747 42.4 138.16 42.4C137.56 42.4 137.12 42.4867 136.84 42.66C136.56 42.82 136.42 43.0267 136.42 43.28C136.42 43.48 136.507 43.6467 136.68 43.78C136.853 43.9 137.113 44.0133 137.46 44.12L138.52 44.46C139.773 44.86 140.733 45.3733 141.4 46C142.08 46.6133 142.42 47.4533 142.42 48.52C142.42 49.6533 141.973 50.5733 141.08 51.28C140.187 51.9733 138.873 52.32 137.14 52.32C136.527 52.32 135.953 52.2667 135.42 52.16C134.9 52.0667 134.44 51.9267 134.04 51.74C133.653 51.54 133.347 51.3 133.12 51.02C132.907 50.7267 132.8 50.3933 132.8 50.02C132.8 49.6333 132.913 49.3067 133.14 49.04C133.367 48.76 133.613 48.5467 133.88 48.4C134.253 48.6933 134.707 48.9467 135.24 49.16C135.787 49.3733 136.38 49.48 137.02 49.48C137.673 49.48 138.133 49.38 138.4 49.18C138.667 48.98 138.8 48.7467 138.8 48.48C138.8 48.2133 138.693 48.0133 138.48 47.88C138.267 47.7333 137.967 47.5933 137.58 47.46L136.74 47.18Z" fill="#F6A861"/>
</svg>
