<svg width="224" height="58" viewBox="0 0 224 58" fill="none" xmlns="http://www.w3.org/2000/svg">
<rect y="9" width="51" height="49" rx="10" fill="white"/>
<path d="M67.068 42V27.04H72.128C73.9173 27.04 75.2813 27.5387 76.22 28.536C77.1587 29.5333 77.628 31 77.628 32.936V36.082C77.628 38.0327 77.1587 39.5067 76.22 40.504C75.2813 41.5013 73.9173 42 72.128 42H67.068ZM72.018 29.57H69.708V39.47H72.018C73.0593 39.47 73.8 39.2133 74.24 38.7C74.6947 38.1867 74.922 37.314 74.922 36.082V32.936C74.922 31.7187 74.6947 30.8533 74.24 30.34C73.8 29.8267 73.0593 29.57 72.018 29.57ZM83.7588 42H81.1188V27.04H83.7588V42ZM91.1424 39.778C92.8437 39.778 93.6944 39.1473 93.6944 37.886C93.6944 37.3727 93.5624 36.9693 93.2984 36.676C93.049 36.3827 92.5797 36.126 91.8904 35.906L90.0864 35.312C87.9304 34.608 86.8524 33.1927 86.8524 31.066C86.8524 29.834 87.2337 28.822 87.9964 28.03C88.7737 27.2233 89.9837 26.82 91.6264 26.82C92.3157 26.82 92.9977 26.9007 93.6724 27.062C94.347 27.2087 95.0657 27.4507 95.8284 27.788L95.0144 30.054C94.3104 29.7753 93.709 29.5773 93.2104 29.46C92.7264 29.328 92.2277 29.262 91.7144 29.262C91.0397 29.262 90.5044 29.3867 90.1084 29.636C89.727 29.8707 89.5364 30.3033 89.5364 30.934C89.5364 31.4033 89.6684 31.792 89.9324 32.1C90.211 32.3933 90.6657 32.6427 91.2964 32.848L93.1004 33.442C94.1857 33.8087 94.9997 34.344 95.5424 35.048C96.0997 35.7373 96.3784 36.654 96.3784 37.798C96.3784 39.118 95.9604 40.1887 95.1244 41.01C94.2884 41.8167 92.9757 42.22 91.1864 42.22C90.4824 42.22 89.749 42.1393 88.9864 41.978C88.2384 41.802 87.417 41.5087 86.5224 41.098L87.3364 38.832C88.1577 39.184 88.8544 39.4333 89.4264 39.58C90.013 39.712 90.585 39.778 91.1424 39.778ZM101.297 36.082C101.297 37.1527 101.532 38.0327 102.001 38.722C102.47 39.3967 103.24 39.734 104.311 39.734C104.751 39.734 105.206 39.6753 105.675 39.558C106.159 39.4407 106.753 39.2427 107.457 38.964L108.271 41.252C107.479 41.604 106.746 41.8533 106.071 42C105.411 42.1467 104.773 42.22 104.157 42.22C102.925 42.22 101.891 41.956 101.055 41.428C100.234 40.9 99.6177 40.174 99.2071 39.25C98.7964 38.326 98.5911 37.27 98.5911 36.082V32.936C98.5911 31.748 98.7964 30.692 99.2071 29.768C99.6177 28.844 100.234 28.1253 101.055 27.612C101.891 27.084 102.925 26.82 104.157 26.82C104.758 26.82 105.382 26.8933 106.027 27.04C106.672 27.172 107.376 27.4067 108.139 27.744L107.325 30.076C106.65 29.7973 106.086 29.5993 105.631 29.482C105.176 29.3647 104.736 29.306 104.311 29.306C103.24 29.306 102.47 29.6433 102.001 30.318C101.532 30.9927 101.297 31.8653 101.297 32.936V36.082ZM121.5 32.936V36.082C121.5 37.9887 121.023 39.492 120.07 40.592C119.116 41.6773 117.723 42.22 115.89 42.22C114.042 42.22 112.641 41.6773 111.688 40.592C110.749 39.492 110.28 37.9887 110.28 36.082V32.936C110.28 31.0293 110.749 29.5333 111.688 28.448C112.641 27.3627 114.042 26.82 115.89 26.82C117.723 26.82 119.116 27.3627 120.07 28.448C121.023 29.5333 121.5 31.0293 121.5 32.936ZM118.794 32.936C118.794 31.7333 118.559 30.8313 118.09 30.23C117.62 29.614 116.887 29.306 115.89 29.306C114.892 29.306 114.159 29.614 113.69 30.23C113.22 30.8313 112.986 31.7333 112.986 32.936V36.082C112.986 37.2847 113.22 38.194 113.69 38.81C114.159 39.426 114.892 39.734 115.89 39.734C116.887 39.734 117.62 39.426 118.09 38.81C118.559 38.194 118.794 37.2847 118.794 36.082V32.936ZM135.14 27.04L130.388 42H127.682L122.908 27.04H125.812L128.078 34.564L129.112 38.436L130.212 34.542L132.456 27.04H135.14ZM146.183 39.47V42H137.515V27.04H145.963V29.57H140.155V33.156H145.303V35.686H140.155V39.47H146.183ZM151.95 36.5V42H149.31V27.04H154.304C155.815 27.04 156.974 27.4287 157.78 28.206C158.602 28.9687 159.012 29.9953 159.012 31.286V32.232C159.012 33.0827 158.829 33.8307 158.462 34.476C158.096 35.1213 157.568 35.6127 156.878 35.95C158.081 38.0033 159.108 40.02 159.958 42H156.944C156.211 40.1667 155.338 38.3333 154.326 36.5H151.95ZM154.304 29.46H151.95V34.08H154.304C154.95 34.08 155.441 33.9187 155.778 33.596C156.13 33.2587 156.306 32.804 156.306 32.232V31.286C156.306 30.7287 156.13 30.2887 155.778 29.966C155.441 29.6287 154.95 29.46 154.304 29.46ZM171.992 27.04L167.416 35.994V42H164.776V36.038L160.156 27.04H162.972L166.206 33.42L169.264 27.04H171.992ZM181.785 39.778C183.486 39.778 184.337 39.1473 184.337 37.886C184.337 37.3727 184.205 36.9693 183.941 36.676C183.692 36.3827 183.222 36.126 182.533 35.906L180.729 35.312C178.573 34.608 177.495 33.1927 177.495 31.066C177.495 29.834 177.876 28.822 178.639 28.03C179.416 27.2233 180.626 26.82 182.269 26.82C182.958 26.82 183.64 26.9007 184.315 27.062C184.99 27.2087 185.708 27.4507 186.471 27.788L185.657 30.054C184.953 29.7753 184.352 29.5773 183.853 29.46C183.369 29.328 182.87 29.262 182.357 29.262C181.682 29.262 181.147 29.3867 180.751 29.636C180.37 29.8707 180.179 30.3033 180.179 30.934C180.179 31.4033 180.311 31.792 180.575 32.1C180.854 32.3933 181.308 32.6427 181.939 32.848L183.743 33.442C184.828 33.8087 185.642 34.344 186.185 35.048C186.742 35.7373 187.021 36.654 187.021 37.798C187.021 39.118 186.603 40.1887 185.767 41.01C184.931 41.8167 183.618 42.22 181.829 42.22C181.125 42.22 180.392 42.1393 179.629 41.978C178.881 41.802 178.06 41.5087 177.165 41.098L177.979 38.832C178.8 39.184 179.497 39.4333 180.069 39.58C180.656 39.712 181.228 39.778 181.785 39.778ZM197.858 42L194.118 35.466C193.868 35.7447 193.612 36.0233 193.348 36.302C193.098 36.5807 192.834 36.8667 192.556 37.16V42H189.916V27.04H192.556V34.146C193.67 32.87 194.624 31.66 195.416 30.516C196.208 29.3573 196.89 28.1987 197.462 27.04H200.344C199.713 28.3013 199.038 29.4967 198.32 30.626C197.616 31.7407 196.868 32.7747 196.076 33.728L201.048 42H197.858ZM206.112 42H203.472V27.04H206.112V42ZM210.24 42V27.04H212.66C213.819 28.5507 214.919 30.1493 215.96 31.836C217.001 33.508 217.947 35.2313 218.798 37.006L218.6 32.54V27.04H221.13V42H218.71C217.771 40.152 216.796 38.2967 215.784 36.434C214.787 34.5567 213.723 32.7893 212.594 31.132L212.77 36.28V42H210.24Z" fill="#FFAF66"/>
<path d="M21.755 41.15C22.085 41.21 22.49 41.27 22.97 41.33C23.45 41.36 23.9 41.375 24.32 41.375C25.34 41.375 26.27 41.225 27.11 40.925C27.98 40.625 28.715 40.16 29.315 39.53C29.945 38.9 30.425 38.09 30.755 37.1C31.115 36.08 31.295 34.865 31.295 33.455C31.295 30.755 30.665 28.73 29.405 27.38C28.145 26 26.465 25.31 24.365 25.31C23.945 25.31 23.51 25.325 23.06 25.355C22.64 25.385 22.205 25.43 21.755 25.49V41.15ZM24.275 47.72C23.765 47.72 23.18 47.705 22.52 47.675C21.86 47.645 21.17 47.585 20.45 47.495C19.76 47.405 19.055 47.285 18.335 47.135C17.645 47.015 17 46.835 16.4 46.595C14.75 45.965 13.925 44.87 13.925 43.31V22.295C13.925 21.665 14.09 21.185 14.42 20.855C14.78 20.495 15.26 20.21 15.86 20C17.15 19.58 18.515 19.31 19.955 19.19C21.395 19.04 22.685 18.965 23.825 18.965C26.165 18.965 28.28 19.25 30.17 19.82C32.09 20.39 33.725 21.275 35.075 22.475C36.455 23.645 37.52 25.13 38.27 26.93C39.02 28.73 39.395 30.86 39.395 33.32C39.395 35.72 39.035 37.82 38.315 39.62C37.595 41.39 36.56 42.89 35.21 44.12C33.89 45.32 32.3 46.22 30.44 46.82C28.58 47.42 26.525 47.72 24.275 47.72Z" fill="#FF7A00"/>
<path d="M36.74 47.18C36.1533 46.98 35.62 46.78 35.14 46.58C34.66 46.3667 34.2467 46.1133 33.9 45.82C33.5533 45.5267 33.28 45.18 33.08 44.78C32.8933 44.3667 32.8 43.8667 32.8 43.28C32.8 42.1467 33.2333 41.24 34.1 40.56C34.98 39.88 36.2067 39.54 37.78 39.54C38.3533 39.54 38.8867 39.58 39.38 39.66C39.8733 39.74 40.2933 39.8667 40.64 40.04C41 40.2 41.28 40.4133 41.48 40.68C41.68 40.9333 41.78 41.2333 41.78 41.58C41.78 41.9267 41.7 42.2267 41.54 42.48C41.38 42.72 41.1867 42.9267 40.96 43.1C40.6667 42.9133 40.2733 42.7533 39.78 42.62C39.2867 42.4733 38.7467 42.4 38.16 42.4C37.56 42.4 37.12 42.4867 36.84 42.66C36.56 42.82 36.42 43.0267 36.42 43.28C36.42 43.48 36.5067 43.6467 36.68 43.78C36.8533 43.9 37.1133 44.0133 37.46 44.12L38.52 44.46C39.7733 44.86 40.7333 45.3733 41.4 46C42.08 46.6133 42.42 47.4533 42.42 48.52C42.42 49.6533 41.9733 50.5733 41.08 51.28C40.1867 51.9733 38.8733 52.32 37.14 52.32C36.5267 52.32 35.9533 52.2667 35.42 52.16C34.9 52.0667 34.44 51.9267 34.04 51.74C33.6533 51.54 33.3467 51.3 33.12 51.02C32.9067 50.7267 32.8 50.3933 32.8 50.02C32.8 49.6333 32.9133 49.3067 33.14 49.04C33.3667 48.76 33.6133 48.5467 33.88 48.4C34.2533 48.6933 34.7067 48.9467 35.24 49.16C35.7867 49.3733 36.38 49.48 37.02 49.48C37.6733 49.48 38.1333 49.38 38.4 49.18C38.6667 48.98 38.8 48.7467 38.8 48.48C38.8 48.2133 38.6933 48.0133 38.48 47.88C38.2667 47.7333 37.9667 47.5933 37.58 47.46L36.74 47.18Z" fill="#F6A861"/>
</svg>
