<svg width="170" height="133" viewBox="0 0 170 133" fill="none" xmlns="http://www.w3.org/2000/svg">
<g clip-path="url(#clip0_0_1)">
<path d="M38.0829 22.2567C38.0466 18.6309 41.3865 16.8669 41.5392 16.7847C39.6477 14.3064 36.7158 13.9677 35.6856 13.9407C33.2232 13.7079 30.8346 15.2649 29.5803 15.2649C28.3009 15.2649 26.3693 13.9632 24.2874 14.0015C21.6085 14.0386 19.1023 15.4325 17.7277 17.597C14.8911 22.0104 17.0067 28.496 19.7245 32.0634C21.084 33.8105 22.6726 35.7612 24.7519 35.6926C26.7861 35.6172 27.546 34.5271 30.0009 34.5271C32.4333 34.5271 33.1468 35.6926 35.2674 35.6487C37.4507 35.6172 38.8252 33.8937 40.1371 32.1309C41.7082 30.1284 42.3392 28.1562 42.3642 28.055C42.3129 28.0392 38.1242 26.6026 38.0829 22.2567Z" fill="black"/>
<path d="M34.0769 11.5938C35.171 10.3642 35.9197 8.69128 35.7118 6.99365C34.1283 7.05665 32.1478 7.97803 31.0074 9.18065C29.9984 10.2404 29.0971 11.9774 29.3299 13.6109C31.1088 13.7302 32.9352 12.8043 34.0769 11.5938Z" fill="black"/>
<path d="M67.5227 35.4417H64.6797L63.1224 31.0441H57.7094L56.2259 35.4417H53.4581L58.821 20.4702H62.1334L67.5227 35.4417ZM62.653 29.1991L61.2446 25.2897C61.0956 24.8903 60.8165 23.9498 60.4046 22.4693H60.3546C60.1906 23.1061 59.9264 24.0466 59.5634 25.2897L58.1801 29.1991H62.653Z" fill="black"/>
<path d="M81.3143 29.9109C81.3143 31.7469 80.7622 33.1982 79.6581 34.2636C78.6691 35.2119 77.4411 35.6856 75.9752 35.6856C74.3928 35.6856 73.2561 35.1748 72.5639 34.1533H72.5138V39.8402H69.8448V28.1998C69.8448 27.0456 69.811 25.8609 69.7459 24.6459H72.0932L72.2421 26.3571H72.2922C73.1823 25.0678 74.533 24.4243 76.3457 24.4243C77.7628 24.4243 78.9458 24.9272 79.8922 25.9341C80.8411 26.9421 81.3143 28.2673 81.3143 29.9109ZM78.5953 29.9987C78.5953 28.9479 78.3324 28.0817 77.8041 27.3999C77.227 26.6889 76.4521 26.3334 75.4807 26.3334C74.8222 26.3334 74.2238 26.5314 73.6893 26.9218C73.1535 27.3156 72.803 27.8297 72.639 28.4664C72.5564 28.7634 72.515 29.0064 72.515 29.1977V30.9977C72.515 31.7829 72.7829 32.4456 73.3187 32.9867C73.8545 33.5278 74.5506 33.7978 75.4068 33.7978C76.4121 33.7978 77.1945 33.4491 77.754 32.7538C78.3149 32.0574 78.5953 31.1394 78.5953 29.9987Z" fill="black"/>
<path d="M95.131 29.9109C95.131 31.7469 94.5789 33.1982 93.4735 34.2636C92.4858 35.2119 91.2578 35.6856 89.7918 35.6856C88.2095 35.6856 87.0728 35.1748 86.3818 34.1533H86.3317V39.8402H83.6628V28.1998C83.6628 27.0456 83.629 25.8609 83.5639 24.6459H85.9111L86.0601 26.3571H86.1102C86.999 25.0678 88.3497 24.4243 90.1637 24.4243C91.5795 24.4243 92.7625 24.9272 93.7114 25.9341C94.6566 26.9421 95.131 28.2673 95.131 29.9109ZM92.412 29.9987C92.412 28.9479 92.1478 28.0817 91.6196 27.3999C91.0424 26.6889 90.2701 26.3334 89.2974 26.3334C88.6376 26.3334 88.0405 26.5314 87.5047 26.9218C86.9689 27.3156 86.6197 27.8297 86.4557 28.4664C86.3743 28.7634 86.3317 29.0064 86.3317 29.1977V30.9977C86.3317 31.7829 86.5996 32.4456 87.1329 32.9867C87.6687 33.5267 88.3647 33.7978 89.2235 33.7978C90.2288 33.7978 91.0112 33.4491 91.5707 32.7538C92.1316 32.0574 92.412 31.1394 92.412 29.9987Z" fill="black"/>
<path d="M110.579 31.2434C110.579 32.5169 110.087 33.553 109.099 34.3529C108.014 35.227 106.503 35.6635 104.561 35.6635C102.769 35.6635 101.331 35.353 100.244 34.7309L100.862 32.7317C102.034 33.3685 103.319 33.688 104.72 33.688C105.725 33.688 106.508 33.4832 107.07 33.076C107.629 32.6687 107.909 32.122 107.909 31.4402C107.909 30.8327 107.678 30.3209 107.216 29.9057C106.757 29.4906 105.99 29.1047 104.918 28.7481C102.001 27.7705 100.544 26.3384 100.544 24.4551C100.544 23.2244 101.055 22.2152 102.078 21.43C103.097 20.6436 104.456 20.251 106.156 20.251C107.672 20.251 108.931 20.4884 109.937 20.962L109.269 22.9172C108.331 22.4582 107.269 22.2287 106.081 22.2287C105.142 22.2287 104.408 22.4369 103.883 22.8509C103.438 23.221 103.215 23.6721 103.215 24.2065C103.215 24.7982 103.47 25.2876 103.98 25.6724C104.425 26.0279 105.232 26.4126 106.404 26.8277C107.837 27.3464 108.89 27.9527 109.567 28.648C110.242 29.341 110.579 30.2084 110.579 31.2434Z" fill="black"/>
<path d="M119.403 26.4459H116.461V31.6873C116.461 33.0204 116.98 33.6864 118.019 33.6864C118.496 33.6864 118.891 33.6493 119.204 33.5751L119.278 35.3964C118.752 35.5731 118.06 35.6619 117.202 35.6619C116.148 35.6619 115.325 35.3728 114.73 34.7957C114.138 34.2174 113.84 33.2477 113.84 31.8853V26.4437H112.087V24.6437H113.84V22.6671L116.461 21.9561V24.6437H119.403V26.4459Z" fill="black"/>
<path d="M132.677 29.9552C132.677 31.6145 132.148 32.9769 131.094 34.0423C129.989 35.1392 128.522 35.6859 126.693 35.6859C124.93 35.6859 123.527 35.1605 122.48 34.1098C121.434 33.059 120.91 31.7327 120.91 30.134C120.91 28.4612 121.449 27.0909 122.529 26.0255C123.607 24.959 125.062 24.4258 126.89 24.4258C128.653 24.4258 130.071 24.9512 131.142 26.003C132.166 27.0234 132.677 28.3408 132.677 29.9552ZM129.907 30.0328C129.907 29.0372 129.671 28.1833 129.191 27.4712C128.632 26.6094 127.832 26.1797 126.795 26.1797C125.723 26.1797 124.908 26.6105 124.348 27.4712C123.869 28.1844 123.632 29.0518 123.632 30.0778C123.632 31.0734 123.869 31.9273 124.348 32.6383C124.925 33.5 125.731 33.9298 126.772 33.9298C127.791 33.9298 128.591 33.491 129.168 32.6158C129.66 31.8902 129.907 31.0273 129.907 30.0328Z" fill="black"/>
<path d="M141.352 26.7553C141.088 26.7114 140.806 26.6889 140.511 26.6889C139.572 26.6889 138.846 27.0073 138.335 27.6452C137.89 28.2077 137.668 28.9187 137.668 29.7771V35.4414H135L135.025 28.0457C135.025 26.8014 134.991 25.6686 134.925 24.6471H137.25L137.347 26.7126H137.421C137.703 26.0027 138.147 25.4312 138.756 25.0026C139.35 24.6167 139.992 24.4243 140.685 24.4243C140.931 24.4243 141.154 24.4401 141.352 24.4682V26.7553Z" fill="black"/>
<path d="M153.288 29.5327C153.288 29.9624 153.257 30.3247 153.191 30.6206H145.184C145.215 31.6871 145.602 32.5027 146.346 33.0652C147.02 33.5681 147.893 33.8201 148.964 33.8201C150.15 33.8201 151.231 33.6502 152.204 33.3093L152.622 34.9743C151.486 35.4198 150.144 35.6414 148.595 35.6414C146.732 35.6414 145.27 35.1487 144.206 34.1643C143.145 33.1799 142.612 31.8581 142.612 30.1998C142.612 28.5719 143.107 27.2163 144.097 26.1352C145.134 24.9809 146.535 24.4038 148.297 24.4038C150.028 24.4038 151.339 24.9809 152.229 26.1352C152.934 27.0521 153.288 28.1861 153.288 29.5327ZM150.743 28.9106C150.761 28.1996 150.587 27.5853 150.225 27.0667C149.763 26.3996 149.053 26.0666 148.098 26.0666C147.226 26.0666 146.516 26.3917 145.974 27.0442C145.529 27.5628 145.265 28.1849 145.184 28.9094L150.743 28.9106Z" fill="black"/>
<path d="M61.7704 11.2605C61.7704 12.5846 61.3285 13.5814 60.4459 14.2508C59.6285 14.8684 58.4668 15.1778 56.962 15.1778C56.2159 15.1778 55.5775 15.1485 55.0429 15.09V7.85515C55.7402 7.7539 56.4913 7.70215 57.3025 7.70215C58.7359 7.70215 59.8163 7.98227 60.5448 8.54252C61.361 9.1759 61.7704 10.0815 61.7704 11.2605ZM60.3871 11.2931C60.3871 10.4348 60.1342 9.77665 59.6285 9.31765C59.1227 8.85977 58.3841 8.63027 57.4115 8.63027C56.9983 8.63027 56.6466 8.65502 56.3549 8.70677V14.2069C56.5164 14.2294 56.8118 14.2395 57.2412 14.2395C58.2452 14.2395 59.0201 13.9886 59.5659 13.4869C60.1117 12.9851 60.3871 12.2539 60.3871 11.2931Z" fill="black"/>
<path d="M69.105 12.4164C69.105 13.2321 68.8459 13.9003 68.3276 14.4246C67.7843 14.9634 67.0645 15.2323 66.1657 15.2323C65.2994 15.2323 64.6096 14.9747 64.0951 14.4572C63.5818 13.9408 63.3252 13.2894 63.3252 12.5042C63.3252 11.6829 63.5893 11.0091 64.1201 10.4859C64.6509 9.96281 65.3645 9.70068 66.2633 9.70068C67.1296 9.70068 67.8256 9.95831 68.3526 10.4747C68.8534 10.9764 69.105 11.6244 69.105 12.4164ZM67.7442 12.4547C67.7442 11.9653 67.6266 11.5457 67.3925 11.1958C67.1171 10.7728 66.7252 10.5613 66.2157 10.5613C65.6887 10.5613 65.2881 10.7728 65.0127 11.1958C64.7773 11.5457 64.6609 11.9721 64.6609 12.4761C64.6609 12.9654 64.7786 13.3851 65.0127 13.7349C65.2969 14.1579 65.6925 14.3694 66.2032 14.3694C66.7039 14.3694 67.097 14.1546 67.3799 13.7237C67.6228 13.3671 67.7442 12.9441 67.7442 12.4547Z" fill="black"/>
<path d="M78.9396 9.80957L77.0931 15.1128H75.8913L75.1264 12.8099C74.9324 12.2351 74.7746 11.6636 74.652 11.0966H74.6282C74.5143 11.6793 74.3565 12.2497 74.1537 12.8099L73.3413 15.1128H72.1257L70.3894 9.80957H71.7376L72.4049 12.3307C72.5664 12.9269 72.6991 13.4951 72.8055 14.0328H72.8293C72.9269 13.5896 73.0884 13.0248 73.3162 12.3419L74.1537 9.8107H75.2228L76.0252 12.2879C76.2193 12.8921 76.377 13.4737 76.4984 14.0339H76.5347C76.6236 13.4883 76.7576 12.9067 76.9353 12.2879L77.6514 9.8107H78.9396V9.80957Z" fill="black"/>
<path d="M85.7409 15.1124H84.4289V12.0749C84.4289 11.1389 84.0333 10.6709 83.2397 10.6709C82.8503 10.6709 82.5361 10.7991 82.292 11.0568C82.0504 11.3144 81.9277 11.6181 81.9277 11.9658V15.1113H80.6158V11.3245C80.6158 10.8588 80.5995 10.3536 80.5682 9.80688H81.7212L81.7825 10.636H81.8188C81.9715 10.3784 82.1994 10.1658 82.4986 9.99588C82.8541 9.79788 83.2522 9.69775 83.6878 9.69775C84.2386 9.69775 84.6968 9.8575 85.0611 10.1781C85.5143 10.5708 85.7409 11.1569 85.7409 11.9354V15.1124Z" fill="black"/>
<path d="M89.3587 15.1126H88.048V7.37598H89.3587V15.1126Z" fill="black"/>
<path d="M97.0826 12.4164C97.0826 13.2321 96.8235 13.9003 96.3052 14.4246C95.7619 14.9634 95.0409 15.2323 94.1433 15.2323C93.2758 15.2323 92.586 14.9747 92.0727 14.4572C91.5595 13.9408 91.3028 13.2894 91.3028 12.5042C91.3028 11.6829 91.567 11.0091 92.0978 10.4859C92.6285 9.96281 93.3421 9.70068 94.2397 9.70068C95.1072 9.70068 95.802 9.95831 96.3303 10.4747C96.831 10.9764 97.0826 11.6244 97.0826 12.4164ZM95.7206 12.4547C95.7206 11.9653 95.6029 11.5457 95.3689 11.1958C95.0947 10.7728 94.7016 10.5613 94.1934 10.5613C93.6651 10.5613 93.2645 10.7728 92.9903 11.1958C92.755 11.5457 92.6386 11.9721 92.6386 12.4761C92.6386 12.9654 92.7562 13.3851 92.9903 13.7349C93.2745 14.1579 93.6701 14.3694 94.1808 14.3694C94.6816 14.3694 95.0734 14.1546 95.3563 13.7237C95.6004 13.3671 95.7206 12.9441 95.7206 12.4547Z" fill="black"/>
<path d="M103.432 15.1119H102.254L102.156 14.5011H102.12C101.717 14.9882 101.142 15.2323 100.396 15.2323C99.8392 15.2323 99.3885 15.0714 99.0493 14.7519C98.7413 14.4617 98.5874 14.1006 98.5874 13.6719C98.5874 13.0239 98.8878 12.5301 99.4924 12.1881C100.096 11.8461 100.945 11.6784 102.037 11.6863V11.5873C102.037 10.8887 101.629 10.5399 100.812 10.5399C100.23 10.5399 99.7165 10.6716 99.2734 10.9326L99.0067 10.1586C99.555 9.85368 100.232 9.70068 101.031 9.70068C102.573 9.70068 103.347 10.4319 103.347 11.8944V13.8474C103.347 14.3773 103.376 14.7992 103.432 15.1119ZM102.07 13.2894V12.4716C100.623 12.4491 99.8993 12.8057 99.8993 13.5403C99.8993 13.8171 99.9819 14.0241 100.151 14.1624C100.32 14.3008 100.535 14.3694 100.792 14.3694C101.08 14.3694 101.349 14.2873 101.594 14.1242C101.841 13.9599 101.992 13.7518 102.049 13.4964C102.062 13.4391 102.07 13.3693 102.07 13.2894Z" fill="black"/>
<path d="M110.887 15.1126H109.723L109.661 14.261H109.625C109.253 14.909 108.62 15.233 107.73 15.233C107.019 15.233 106.426 14.9821 105.957 14.4804C105.488 13.9786 105.253 13.3272 105.253 12.5274C105.253 11.669 105.508 10.9737 106.018 10.4427C106.513 9.94773 107.119 9.70023 107.84 9.70023C108.632 9.70023 109.187 9.93985 109.502 10.4202H109.527V7.37598H110.84V13.6839C110.84 14.2002 110.856 14.6761 110.887 15.1126ZM109.527 12.8761V11.9919C109.527 11.8389 109.515 11.7151 109.491 11.6206C109.417 11.3371 109.258 11.0986 109.017 10.9062C108.772 10.7139 108.478 10.6171 108.139 10.6171C107.65 10.6171 107.266 10.7915 106.985 11.1414C106.706 11.4912 106.564 11.9379 106.564 12.4835C106.564 13.0077 106.698 13.433 106.967 13.7604C107.251 14.1091 107.634 14.2835 108.114 14.2835C108.545 14.2835 108.889 14.1384 109.15 13.847C109.403 13.5781 109.527 13.2541 109.527 12.8761Z" fill="black"/>
<path d="M122.107 12.4164C122.107 13.2321 121.848 13.9003 121.33 14.4246C120.786 14.9634 120.068 15.2323 119.168 15.2323C118.303 15.2323 117.613 14.9747 117.097 14.4572C116.584 13.9408 116.327 13.2894 116.327 12.5042C116.327 11.6829 116.592 11.0091 117.122 10.4859C117.653 9.96281 118.367 9.70068 119.267 9.70068C120.132 9.70068 120.829 9.95831 121.355 10.4747C121.856 10.9764 122.107 11.6244 122.107 12.4164ZM120.748 12.4547C120.748 11.9653 120.63 11.5457 120.396 11.1958C120.119 10.7728 119.729 10.5613 119.218 10.5613C118.692 10.5613 118.292 10.7728 118.015 11.1958C117.78 11.5457 117.663 11.9721 117.663 12.4761C117.663 12.9654 117.781 13.3851 118.015 13.7349C118.299 14.1579 118.695 14.3694 119.205 14.3694C119.706 14.3694 120.1 14.1546 120.383 13.7237C120.625 13.3671 120.748 12.9441 120.748 12.4547Z" fill="black"/>
<path d="M129.161 15.1124H127.851V12.0749C127.851 11.1389 127.455 10.6709 126.66 10.6709C126.271 10.6709 125.957 10.7991 125.714 11.0568C125.471 11.3144 125.349 11.6181 125.349 11.9658V15.1113H124.036V11.3245C124.036 10.8588 124.021 10.3536 123.99 9.80688H125.142L125.203 10.636H125.239C125.393 10.3784 125.621 10.1658 125.919 9.99588C126.276 9.79788 126.673 9.69775 127.11 9.69775C127.659 9.69775 128.117 9.8575 128.482 10.1781C128.936 10.5708 129.161 11.1569 129.161 11.9354V15.1124Z" fill="black"/>
<path d="M137.991 10.6922H136.546V13.2684C136.546 13.9232 136.803 14.2505 137.311 14.2505C137.546 14.2505 137.742 14.2325 137.896 14.1954L137.929 15.0898C137.67 15.1775 137.33 15.2214 136.91 15.2214C136.392 15.2214 135.989 15.0797 135.697 14.7962C135.404 14.5127 135.259 14.0357 135.259 13.3663V10.6922H134.397V9.80903H135.259V8.83703L136.545 8.48828V9.80791H137.989L137.991 10.6922Z" fill="black"/>
<path d="M144.936 15.1126H143.623V12.0976C143.623 11.147 143.227 10.6711 142.435 10.6711C141.826 10.6711 141.411 10.9467 141.183 11.498C141.144 11.6139 141.122 11.7556 141.122 11.9221V15.1115H139.811V7.37598H141.122V10.5721H141.147C141.56 9.99048 142.152 9.70023 142.919 9.70023C143.462 9.70023 143.912 9.85998 144.269 10.1806C144.713 10.58 144.936 11.174 144.936 11.9592V15.1126Z" fill="black"/>
<path d="M152.1 12.2103C152.1 12.4218 152.083 12.5995 152.051 12.7447H148.117C148.134 13.2689 148.322 13.6683 148.686 13.945C149.019 14.1925 149.449 14.3163 149.975 14.3163C150.557 14.3163 151.088 14.233 151.566 14.0654L151.771 14.8844C151.211 15.1027 150.553 15.2118 149.791 15.2118C148.877 15.2118 148.157 14.9699 147.636 14.4862C147.113 14.0024 146.854 13.3533 146.854 12.5388C146.854 11.7389 147.095 11.0729 147.582 10.5419C148.091 9.97491 148.778 9.69141 149.645 9.69141C150.494 9.69141 151.139 9.97491 151.574 10.5419C151.926 10.9919 152.1 11.5488 152.1 12.2103ZM150.848 11.9054C150.858 11.5555 150.772 11.254 150.594 10.9998C150.366 10.6724 150.02 10.5082 149.55 10.5082C149.122 10.5082 148.773 10.6679 148.506 10.9885C148.288 11.2439 148.159 11.5488 148.117 11.9054H150.848Z" fill="black"/>
</g>
<path d="M127.352 121.25H129.481V106.56H127.352V121.25ZM146.524 111.852L144.084 118.22H144.011L141.479 111.852H139.186L142.985 120.753L140.819 125.704H143.038L148.891 111.853L146.524 111.852ZM134.452 119.581C133.757 119.581 132.784 119.222 132.784 118.334C132.784 117.2 133.995 116.765 135.04 116.765C135.975 116.765 136.417 116.973 136.985 117.257C136.819 118.617 135.682 119.581 134.452 119.581ZM134.71 111.531C133.169 111.531 131.573 112.23 130.913 113.78L132.802 114.592C133.206 113.78 133.957 113.516 134.747 113.516C135.848 113.516 136.967 114.195 136.985 115.405V115.556C136.599 115.329 135.773 114.989 134.765 114.989C132.728 114.989 130.655 116.142 130.655 118.296C130.655 120.261 132.325 121.528 134.196 121.528C135.626 121.528 136.417 120.866 136.911 120.091H136.985V121.226H139.04V115.594C139.04 112.986 137.149 111.531 134.71 111.531ZM121.555 113.64H118.528V108.605H121.555C123.147 108.605 124.05 109.962 124.05 111.123C124.05 112.261 123.146 113.64 121.555 113.64ZM121.5 106.561H116.4V121.25H118.528V115.685H121.501C123.86 115.685 126.179 113.926 126.179 111.123C126.179 108.321 123.859 106.561 121.5 106.561ZM93.6889 119.584C92.2184 119.584 90.9877 118.315 90.9877 116.574C90.9877 114.813 92.2184 113.527 93.6889 113.527C95.1407 113.527 96.28 114.813 96.28 116.574C96.28 118.315 95.1407 119.584 93.6889 119.584ZM96.133 112.674H96.0594C95.5818 112.088 94.6624 111.558 93.5053 111.558C91.079 111.558 88.8555 113.754 88.8555 116.574C88.8555 119.375 91.079 121.552 93.5053 121.552C94.6624 121.552 95.5817 121.022 96.0594 120.417H96.133V121.136C96.133 123.048 95.1407 124.07 93.5418 124.07C92.2375 124.07 91.4289 123.104 91.0978 122.291L89.242 123.086C89.7745 124.41 91.1891 126.039 93.5419 126.039C96.0417 126.039 98.1551 124.524 98.1551 120.832V111.86H96.1331L96.133 112.674ZM99.6255 121.249H101.756V106.56H99.6255V121.249ZM104.899 116.404C104.844 114.473 106.352 113.489 107.435 113.489C108.281 113.489 108.997 113.924 109.237 114.548L104.899 116.404ZM111.515 114.737C111.111 113.621 109.88 111.558 107.362 111.558C104.862 111.558 102.786 113.583 102.786 116.555C102.786 119.357 104.844 121.552 107.6 121.552C109.824 121.552 111.111 120.152 111.644 119.338L109.99 118.202C109.438 119.035 108.685 119.584 107.6 119.584C106.517 119.584 105.744 119.073 105.249 118.069L111.735 115.306L111.515 114.737ZM59.8316 113.091V115.211H64.7566C64.6095 116.404 64.2236 117.274 63.6355 117.88C62.9185 118.618 61.7975 119.432 59.8315 119.432C56.7991 119.432 54.4287 116.915 54.4287 113.791C54.4287 110.668 56.7991 108.15 59.8315 108.15C61.4671 108.15 62.6614 108.813 63.5436 109.665L64.9958 108.169C63.7641 106.958 62.1288 106.03 59.8315 106.03C55.6776 106.03 52.186 109.513 52.186 113.791C52.186 118.069 55.6776 121.552 59.8315 121.552C62.0732 121.552 63.7642 120.795 65.0872 119.375C66.4472 117.975 66.87 116.006 66.87 114.416C66.87 113.924 66.8329 113.47 66.7594 113.091H59.8316ZM72.4698 119.584C70.9993 119.584 69.7312 118.334 69.7312 116.555C69.7312 114.757 70.9993 113.527 72.4698 113.527C73.9398 113.527 75.2079 114.757 75.2079 116.555C75.2079 118.334 73.9398 119.584 72.4698 119.584ZM72.4698 111.558C69.786 111.558 67.5994 113.659 67.5994 116.555C67.5994 119.432 69.786 121.552 72.4698 121.552C75.1527 121.552 77.3397 119.432 77.3397 116.555C77.3397 113.659 75.1527 111.558 72.4698 111.558ZM83.0933 119.584C81.6238 119.584 80.3552 118.334 80.3552 116.555C80.3552 114.757 81.6239 113.527 83.0933 113.527C84.5638 113.527 85.8315 114.757 85.8315 116.555C85.8315 118.334 84.5638 119.584 83.0933 119.584ZM83.0933 111.558C80.4104 111.558 78.2239 113.659 78.2239 116.555C78.2239 119.432 80.4104 121.552 83.0933 121.552C85.7772 121.552 87.9637 119.432 87.9637 116.555C87.9637 113.659 85.7772 111.558 83.0933 111.558Z" fill="black"/>
<path d="M28.9992 108.823L16.8555 122.1C16.8559 122.103 16.8568 122.105 16.8573 122.108C17.2297 123.55 18.5081 124.612 20.0254 124.612C20.6319 124.612 21.2013 124.443 21.6897 124.146L21.7285 124.123L35.3985 115.998L28.9992 108.823Z" fill="#EB3131"/>
<path d="M41.2858 106.564L41.2742 106.555L35.3724 103.031L28.7233 109.126L35.3955 115.997L41.2662 112.508C42.2954 111.936 42.9941 110.818 42.9941 109.53C42.9941 108.25 42.3049 107.138 41.2858 106.564Z" fill="#F6B60B"/>
<path d="M16.8538 96.9009C16.7808 97.1782 16.7424 97.4686 16.7424 97.7702V121.232C16.7424 121.533 16.7803 121.824 16.8542 122.101L29.4172 109.163L16.8538 96.9009Z" fill="#5778C5"/>
<path d="M29.089 109.501L35.3751 103.028L21.7204 94.8735C21.2241 94.5673 20.6448 94.3906 20.0249 94.3906C18.5077 94.3906 17.2275 95.4541 16.855 96.8975C16.8546 96.8989 16.8546 96.8999 16.8546 96.9011L29.089 109.501Z" fill="#3BAD49"/>
<path d="M59.4324 97.4931H56.1047V98.3413H58.5983C58.5306 99.0335 58.2632 99.5769 57.8123 99.9717C57.3614 100.366 56.7856 100.565 56.1048 100.565C55.3579 100.565 54.7252 100.297 54.2066 99.7643C53.6986 99.2208 53.4402 98.5488 53.4402 97.7392C53.4402 96.9297 53.6986 96.2577 54.2066 95.7143C54.7252 95.1819 55.3579 94.9157 56.1048 94.9157C56.488 94.9157 56.8534 94.9836 57.1884 95.1323C57.5235 95.281 57.7926 95.4885 58.003 95.7547L58.6357 95.103C58.3487 94.7669 57.9852 94.5099 57.5341 94.3227C57.0832 94.1354 56.6127 94.0455 56.1047 94.0455C55.1084 94.0455 54.2636 94.4016 53.5738 95.1121C52.884 95.8244 52.5382 96.702 52.5382 97.7393C52.5382 98.7765 52.8839 99.656 53.5738 100.367C54.2636 101.077 55.1084 101.433 56.1047 101.433C57.1509 101.433 57.9851 101.088 58.6268 100.387C59.1918 99.8029 59.4805 99.0135 59.4805 98.0258C59.4805 97.8587 59.461 97.6804 59.4324 97.4931ZM60.7216 94.2032V101.275H64.73V100.407H61.6038V98.1634H64.4236V97.3151H61.6038V95.0735H64.73V94.2032L60.7216 94.2032ZM70.3509 95.0735V94.2032H65.6329V95.0735H67.5508V101.275H68.433V95.0735H70.3509ZM74.6222 94.2032H73.74V101.275H74.6222V94.2032ZM80.4456 95.0735V94.2032H75.7278V95.0735H77.6455V101.275H78.5277V95.0735H80.4456ZM89.3485 95.1231C88.6677 94.4016 87.8335 94.0454 86.8372 94.0454C85.8391 94.0454 85.005 94.4015 84.324 95.1121C83.6432 95.8134 83.3082 96.6928 83.3082 97.7392C83.3082 98.7856 83.6432 99.6651 84.324 100.366C85.0049 101.077 85.8391 101.433 86.8372 101.433C87.8246 101.433 88.6676 101.077 89.3485 100.366C90.0294 99.6651 90.3644 98.7857 90.3644 97.7392C90.3644 96.702 90.0294 95.8243 89.3485 95.1231ZM84.9568 95.7142C85.4648 95.1818 86.0886 94.9156 86.8372 94.9156C87.584 94.9156 88.2078 95.1819 88.7069 95.7142C89.2148 96.2374 89.4643 96.9203 89.4643 97.7392C89.4643 98.5599 89.2148 99.2409 88.7069 99.7642C88.2078 100.297 87.584 100.565 86.8372 100.565C86.0886 100.565 85.4648 100.297 84.9568 99.7642C84.4595 99.23 84.21 98.5599 84.21 97.7392C84.21 96.9203 84.4595 96.2484 84.9568 95.7142ZM92.4606 96.8709L92.4232 95.5067H92.4606L95.9505 101.275H96.8719V94.2031H95.9896V98.3412L96.027 99.7054H95.9896L92.653 94.2031H91.5783V101.275H92.4606V96.8709Z" fill="black" stroke="black" stroke-width="0.319994" stroke-miterlimit="10"/>
<defs>
<clipPath id="clip0_0_1">
<rect width="169" height="45" fill="white" transform="translate(0.367065)"/>
</clipPath>
</defs>
</svg>
